<mxfile host="65bd71144e">
    <diagram id="qpWHc8t4BAuSYqwHl0R3" name="Page-1">
        <mxGraphModel dx="709" dy="693" grid="1" gridSize="10" guides="1" tooltips="1" connect="1" arrows="1" fold="1" page="1" pageScale="1" pageWidth="850" pageHeight="1100" math="0" shadow="0">
            <root>
                <mxCell id="0"/>
                <mxCell id="1" parent="0"/>
                <mxCell id="6" value="" style="rounded=1;whiteSpace=wrap;html=1;fontSize=28;arcSize=7;strokeColor=#999999;fillColor=#f5f5f5;fontColor=#333333;" parent="1" vertex="1">
                    <mxGeometry x="260" y="280" width="250" height="120" as="geometry"/>
                </mxCell>
                <mxCell id="2" value="Repo Cloning" style="rounded=1;whiteSpace=wrap;html=1;" parent="1" vertex="1">
                    <mxGeometry x="260" y="230" width="120" height="40" as="geometry"/>
                </mxCell>
                <mxCell id="4" value="Repo Commit" style="rounded=1;whiteSpace=wrap;html=1;" parent="1" vertex="1">
                    <mxGeometry x="390" y="230" width="120" height="40" as="geometry"/>
                </mxCell>
                <mxCell id="8" value="GitHub" style="dashed=0;outlineConnect=0;html=1;align=center;labelPosition=center;verticalLabelPosition=bottom;verticalAlign=top;shape=mxgraph.weblogos.github;fontSize=28;fontColor=#999999;" parent="1" vertex="1">
                    <mxGeometry x="700" y="160" width="120" height="120" as="geometry"/>
                </mxCell>
                <mxCell id="14" value="Health Check Modules" style="text;html=1;strokeColor=#6c8ebf;fillColor=#dae8fc;align=center;verticalAlign=middle;whiteSpace=wrap;rounded=0;fontSize=14;rotation=0;" parent="1" vertex="1">
                    <mxGeometry x="260" y="280" width="250" height="30" as="geometry"/>
                </mxCell>
                <mxCell id="15" value="Sidecar App" style="text;html=1;strokeColor=none;fillColor=none;align=center;verticalAlign=middle;whiteSpace=wrap;rounded=0;fontSize=24;fontColor=#999999;" parent="1" vertex="1">
                    <mxGeometry x="260" y="410" width="250" height="30" as="geometry"/>
                </mxCell>
                <mxCell id="22" value="" style="html=1;verticalLabelPosition=bottom;align=center;labelBackgroundColor=#ffffff;verticalAlign=top;strokeWidth=2;strokeColor=#0080F0;shadow=0;dashed=0;shape=mxgraph.ios7.icons.gauge;" parent="1" vertex="1">
                    <mxGeometry x="270" y="370" width="20" height="20" as="geometry"/>
                </mxCell>
                <mxCell id="24" value="Report / Alert" style="rounded=1;whiteSpace=wrap;html=1;" parent="1" vertex="1">
                    <mxGeometry x="325" y="330" width="120" height="40" as="geometry"/>
                </mxCell>
                <mxCell id="28" style="edgeStyle=orthogonalEdgeStyle;html=1;dashed=1;curved=1;entryX=0.5;entryY=0;entryDx=0;entryDy=0;" parent="1" source="26" target="36" edge="1">
                    <mxGeometry relative="1" as="geometry">
                        <mxPoint x="280" y="180" as="targetPoint"/>
                    </mxGeometry>
                </mxCell>
                <mxCell id="26" value="Repo Branch &lt;br&gt;Deletion" style="rounded=1;whiteSpace=wrap;html=1;" parent="1" vertex="1">
                    <mxGeometry x="40" y="80" width="120" height="40" as="geometry"/>
                </mxCell>
                <mxCell id="27" value="Dynamic &lt;br&gt;loading" style="text;html=1;strokeColor=none;fillColor=none;align=center;verticalAlign=middle;whiteSpace=wrap;rounded=0;labelBackgroundColor=none;fontSize=14;" parent="1" vertex="1">
                    <mxGeometry x="170" y="120" width="130" height="40" as="geometry"/>
                </mxCell>
                <mxCell id="31" value="" style="group" parent="1" vertex="1" connectable="0">
                    <mxGeometry x="40" y="270" width="120" height="110" as="geometry"/>
                </mxCell>
                <mxCell id="29" value="Health checks configuration" style="shape=document;whiteSpace=wrap;html=1;boundedLbl=1;strokeColor=default;fillColor=#E6E6E6;" parent="31" vertex="1">
                    <mxGeometry y="30.000000000000004" width="119.99999999999999" height="80" as="geometry"/>
                </mxCell>
                <mxCell id="30" value="Yaml" style="text;html=1;strokeColor=default;fillColor=default;align=center;verticalAlign=middle;whiteSpace=wrap;rounded=0;labelBackgroundColor=none;labelBorderColor=none;" parent="31" vertex="1">
                    <mxGeometry y="10" width="120" height="20" as="geometry"/>
                </mxCell>
                <mxCell id="32" style="edgeStyle=none;html=1;entryX=0;entryY=0.5;entryDx=0;entryDy=0;" parent="1" source="29" target="6" edge="1">
                    <mxGeometry relative="1" as="geometry"/>
                </mxCell>
                <mxCell id="3" value="Repo PR" style="rounded=1;whiteSpace=wrap;html=1;" parent="1" vertex="1">
                    <mxGeometry x="390" y="180" width="120" height="40" as="geometry"/>
                </mxCell>
                <mxCell id="36" value="" style="rounded=1;whiteSpace=wrap;html=1;dashed=1;" parent="1" vertex="1">
                    <mxGeometry x="260" y="180" width="120" height="40" as="geometry"/>
                </mxCell>
                <mxCell id="37" value="&lt;span style=&quot;font-size: 14px;&quot;&gt;Check Runs&lt;/span&gt;" style="shape=flexArrow;endArrow=classic;html=1;dashed=1;curved=1;endWidth=42;endSize=12;width=52;fillColor=#d5e8d4;strokeColor=none;labelBackgroundColor=none;" parent="1" edge="1">
                    <mxGeometry width="50" height="50" relative="1" as="geometry">
                        <mxPoint x="540" y="227" as="sourcePoint"/>
                        <mxPoint x="670" y="227" as="targetPoint"/>
                        <mxPoint as="offset"/>
                    </mxGeometry>
                </mxCell>
            </root>
        </mxGraphModel>
    </diagram>
</mxfile>